<svg width="256" xmlns="http://www.w3.org/2000/svg" height="256" id="screenshot-db383709-a041-8066-8004-a1581520a83f" viewBox="0 0 256 256" xmlns:xlink="http://www.w3.org/1999/xlink" fill="none" version="1.1"><g id="shape-db383709-a041-8066-8004-a1581520a83f" data-testid="Group" rx="0" ry="0"><g id="shape-db383709-a041-8066-8004-a151780b6150" data-testid="svg" width="256" height="256" rx="0" ry="0" style="fill: rgb(0, 0, 0);"><g id="shape-db383709-a041-8066-8004-a151780b6151" data-testid="base-background" style="display: none;"><g class="fills" id="fills-db383709-a041-8066-8004-a151780b6151"><rect width="256" height="256" x="0" transform="matrix(1.000000, 0.000000, 0.000000, 1.000000, 0.000000, 0.000000)" style="fill: none;" ry="0" fill="none" rx="0" y="0"/></g></g><g id="shape-db383709-a041-8066-8004-a151780b6152" data-testid="svg-rect"><g class="fills" id="fills-db383709-a041-8066-8004-a151780b6152"><rect rx="60" ry="60" x="0" y="0" transform="matrix(1.000000, 0.000000, 0.000000, 1.000000, 0.000000, 0.000000)" width="256" height="256" style="fill: rgb(36, 41, 56);"/></g></g><g id="shape-db383709-a041-8066-8004-a151780b6153" data-testid="svg-g" clip-path="url(#render-5-clip0_7_147)" rx="0" ry="0" style="display: none; fill: rgb(0, 0, 0);"><defs><clipPath id="render-5-clip0_7_147" class="svg-def" transform="matrix(1.000000, 0.000000, 0.000000, 1.000000, 0.000000, -0.000000)"><rect width="180" height="180" fill="#fff" transform="translate(38 38)"/></clipPath></defs><g id="shape-db383709-a041-8066-8004-a151780b6155" data-testid="svg-path"><g class="fills" id="fills-db383709-a041-8066-8004-a151780b6155"><path d="M203.801,178.210C194.011,177.938,186.416,178.941,180.051,181.619C178.218,182.355,175.277,182.355,175.035,184.662C176.015,185.630,176.133,187.214,176.992,188.556C178.459,190.991,181.033,194.271,183.357,195.973L191.191,201.571C195.965,204.488,201.351,206.193,206.002,209.113C208.696,210.817,211.388,213.007,214.082,214.834C215.454,215.807,216.285,217.392,218.000,217.997L218.000,217.629C217.144,216.538,216.897,214.957,216.044,213.735L212.367,210.209C208.820,205.465,204.410,201.325,199.636,197.922C195.718,195.245,187.152,191.596,185.560,187.097L185.319,186.824C188.008,186.552,191.191,185.605,193.764,184.875C197.929,183.784,201.721,184.024,206.002,182.930L211.882,181.226L211.882,180.135C209.678,177.946,208.087,175.025,205.763,172.959C199.521,167.606,192.661,162.373,185.560,157.994C181.766,155.562,176.868,153.977,172.829,151.913C171.356,151.182,168.911,150.817,168.055,149.601C165.846,146.929,164.625,143.397,163.034,140.232L152.997,119.064C150.794,114.319,149.444,109.574,146.755,105.195C134.144,84.512,120.431,71.983,99.375,59.693C94.848,57.138,89.462,56.039,83.735,54.703L74.555,54.212C72.593,53.362,70.636,51.049,68.922,49.953C61.944,45.574,43.947,36.085,38.803,48.590C35.497,56.497,43.701,64.282,46.486,68.299C48.571,71.097,51.260,74.260,52.733,77.423C53.556,79.490,53.831,81.682,54.689,83.872C56.646,89.224,58.484,95.188,61.055,100.178C62.427,102.733,63.868,105.413,65.582,107.723C66.562,109.086,68.277,109.670,68.642,111.859C66.927,114.294,66.809,117.940,65.829,120.986C61.420,134.734,63.135,151.766,69.377,161.888C71.339,164.928,75.962,171.622,82.235,169.065C87.744,166.875,86.515,159.941,88.106,153.857C88.477,152.399,88.230,151.425,88.962,150.449L88.962,150.722L93.983,160.819C97.778,166.780,104.391,172.986,109.897,177.125C112.833,179.315,115.160,183.089,118.831,184.425L118.831,184.057L118.590,184.057C117.854,182.966,116.751,182.475,115.772,181.624C113.569,179.435,111.121,176.757,109.406,174.325C104.267,167.513,99.740,159.968,95.698,152.183C93.736,148.412,92.022,144.275,90.436,140.504C89.695,139.043,89.695,136.850,88.474,136.125C86.635,138.797,83.947,141.115,82.594,144.398C80.267,149.628,80.026,156.077,79.170,162.769C78.676,162.891,78.895,162.769,78.676,163.041C74.763,162.071,73.413,158.051,71.945,154.648C68.274,146.010,67.659,132.141,70.842,122.164C71.698,119.609,75.375,111.579,73.907,109.146C73.166,106.834,70.724,105.498,69.374,103.671C67.783,101.359,66.073,98.441,64.971,95.886C62.035,89.069,60.567,81.529,57.381,74.715C55.908,71.552,53.340,68.266,51.257,65.349C48.930,62.063,46.365,59.750,44.526,55.859C43.915,54.496,43.058,52.331,44.038,50.869C44.279,49.896,44.773,49.506,45.747,49.288C47.339,47.924,51.872,49.653,53.463,50.379C57.990,52.205,61.785,53.907,65.580,56.459C67.294,57.675,69.133,59.988,71.336,60.599L73.910,60.599C77.828,61.449,82.232,60.871,85.900,61.962C92.389,64.034,98.264,67.072,103.532,70.360C119.567,80.458,132.792,94.814,141.725,111.971C143.193,114.769,143.805,117.324,145.155,120.244C147.729,126.208,150.912,132.289,153.477,138.132C156.051,143.850,158.498,149.694,162.170,154.438C164.008,156.993,171.350,158.329,174.654,159.668C177.104,160.759,180.896,161.741,183.105,163.077C187.264,165.632,191.427,168.552,195.342,171.350C197.298,172.806,203.423,175.849,203.801,178.210ZL203.801,178.210ZZM78.958,72.487C77.267,72.472,75.581,72.677,73.943,73.095L73.943,73.368L74.184,73.368C75.164,75.315,76.879,76.654,78.102,78.358L80.920,84.199L81.162,83.926C82.876,82.710,83.735,80.763,83.735,77.845C83.000,76.995,82.879,76.141,82.267,75.290C81.532,74.074,79.941,73.464,78.958,72.487ZL78.958,72.487ZZ" fill-rule="evenodd" clip-rule="evenodd" style="fill: rgb(255, 255, 255);"/></g></g></g><g id="shape-db383709-a041-8066-8004-a151780b6154" data-testid="svg-defs"><defs fill="none" style="fill: rgb(0, 0, 0);"/></g></g><g id="shape-db383709-a041-8066-8004-a151b798a94b" data-testid="obraz"><defs><pattern patternUnits="userSpaceOnUse" x="55" y="37" width="149" height="185" id="fill-0-render-8"><g><image id="fill-image-render-8-0" href="http://penpot-frontend/assets/by-file-media-id/484c03a8-00f6-81d5-8004-a151ac549fa1" preserveAspectRatio="xMidYMid slice" width="149" height="185" opacity="1"/></g></pattern></defs><g class="fills" id="fills-db383709-a041-8066-8004-a151b798a94b"><rect rx="0" ry="0" x="55" y="37" transform="matrix(1.000000, 0.000000, 0.000000, 1.000000, 0.000000, 0.000000)" width="149" height="185" fill="url(#fill-0-render-8)"/></g></g></g></svg>